<svg xmlns="http://www.w3.org/2000/svg" style="background-color: rgb(255, 255, 255);" width="794px" height="824px" xmlns:xlink="http://www.w3.org/1999/xlink" version="1.1"><defs/><g transform="translate(0.5,0.5)"><path d="M 2 122 C 2 69 142 69 142 122 L 142 262 C 142 315 2 315 2 262 Z" fill="#ffffff" stroke="#000000" stroke-miterlimit="10"/><path d="M 2 122 C 2 162 142 162 142 122" fill="none" stroke="#000000" stroke-miterlimit="10"/><path d="M 222 122 C 222 69 362 69 362 122 L 362 262 C 362 315 222 315 222 262 Z" fill="#ffffff" stroke="#000000" stroke-miterlimit="10"/><path d="M 222 122 C 222 162 362 162 362 122" fill="none" stroke="#000000" stroke-miterlimit="10"/><path d="M 152 197 L 152 187 L 182 187 L 182 177 L 212 192 L 182 207 L 182 197 Z" fill="#ffffff" stroke="#000000" stroke-miterlimit="10"/><path d="M 432 122 C 432 69 572 69 572 122 L 572 262 C 572 315 432 315 432 262 Z" fill="#ffffff" stroke="#000000" stroke-miterlimit="10" stroke-dasharray="3 3"/><path d="M 432 122 C 432 162 572 162 572 122" fill="none" stroke="#000000" stroke-miterlimit="10" stroke-dasharray="3 3"/><path d="M 372 197 L 372 187 L 392 187 L 392 177 L 422 192 L 392 207 L 392 197 Z" fill="#ffffff" stroke="#000000" stroke-miterlimit="10"/><path d="M 642 92 L 772 92 L 792 112 L 792 292 L 662 292 L 642 272 L 642 92 Z" fill="#ffffff" stroke="#000000" stroke-miterlimit="10"/><path d="M 662 292 L 662 112 L 642 92 M 662 112 L 792 112" fill="none" stroke="#000000" stroke-miterlimit="10"/><path d="M 582 197 L 582 187 L 602 187 L 602 177 L 632 192 L 602 207 L 602 197 Z" fill="#ffffff" stroke="#000000" stroke-miterlimit="10"/><rect x="112" y="52" width="105" height="20" fill="none" stroke="none"/><g fill="#000000" font-family="Helvetica" font-size="18px"><text x="114" y="71">Parsing Articles</text></g><rect x="305" y="52" width="105" height="20" fill="none" stroke="none"/><g fill="#000000" font-family="Helvetica" font-size="18px"><text x="307" y="71">Adding Documents</text></g><rect x="537" y="52" width="155" height="20" fill="none" stroke="none"/><g fill="#000000" font-family="Helvetica" font-size="18px"><text x="539" y="71">Building Index</text></g><rect x="12" y="177" width="100" height="30" fill="none" stroke="none"/><g fill="#000000" font-family="Helvetica" font-size="14px"><text x="14" y="192">Wikipedia Articles</text></g><rect x="222" y="162" width="100" height="30" fill="none" stroke="none"/><g fill="#000000" font-family="Helvetica" font-size="14px"><text x="224" y="177">Wikipedia Documents</text></g><rect x="462" y="177" width="100" height="30" fill="none" stroke="none"/><g fill="#000000" font-family="Helvetica" font-size="14px"><text x="464" y="192">Concepts</text></g><rect x="672" y="177" width="100" height="30" fill="none" stroke="none"/><g fill="#000000" font-family="Helvetica" font-size="14px"><text x="674" y="192">Inverted Index</text></g><rect x="60" y="102" width="60" height="30" fill="none" stroke="none"/><g fill="#000000" font-family="Helvetica" font-size="12px"><text x="62" y="115">XML</text></g><rect x="275" y="102" width="60" height="30" fill="none" stroke="none"/><g fill="#000000" font-family="Helvetica" font-size="12px"><text x="277" y="115">XML</text></g><rect x="477" y="102" width="60" height="30" fill="none" stroke="none"/><g fill="#000000" font-family="Helvetica" font-size="12px"><text x="479" y="115">Memory</text></g><rect x="692" y="92" width="60" height="30" fill="none" stroke="none"/><g fill="#000000" font-family="Helvetica" font-size="12px"><text x="694" y="105">Pickle</text></g><rect x="212" y="2" width="105" height="20" fill="none" stroke="none"/><g fill="#000000" font-family="Helvetica" text-decoration="underline" font-size="24px"><text x="214" y="27">Building Inverted Index Workflow</text></g><rect x="172" y="532" width="465" height="290" rx="44" ry="44" fill="#ffffff" stroke="#000000"/><rect x="33" y="597" width="53" height="30" fill="none" stroke="none"/><g fill="#000000" font-family="Helvetica" font-size="14px"><text x="35" y="612">Text 1</text></g><rect x="37" y="690" width="53" height="30" fill="none" stroke="none"/><g fill="#000000" font-family="Helvetica" font-size="14px"><text x="39" y="705">Text 2</text></g><path d="M 207 562 L 312 562 L 332 582 L 332 752 L 227 752 L 207 732 L 207 562 Z" fill="#ffffff" stroke="#000000" stroke-miterlimit="10"/><path d="M 227 752 L 227 582 L 207 562 M 227 582 L 332 582" fill="none" stroke="#000000" stroke-miterlimit="10"/><rect x="232" y="632" width="100" height="30" fill="none" stroke="none"/><g fill="#000000" font-family="Helvetica" font-size="14px"><text x="234" y="647">Inverted Index</text></g><rect x="383" y="582" width="53" height="30" fill="none" stroke="none"/><g fill="#000000" font-family="Helvetica" font-size="14px"><text x="385" y="597">Centroid Vector 1</text></g><rect x="380" y="675" width="53" height="30" fill="none" stroke="none"/><g fill="#000000" font-family="Helvetica" font-size="14px"><text x="382" y="690">Centroid Vector 2</text></g><path d="M 507 567 Q 632 567 632 660 Q 632 752 507 752 Q 570 660 507 567 Z" fill="#ffffff" stroke="#000000" stroke-miterlimit="10"/><rect x="697" y="645" width="75" height="30" fill="none" stroke="none"/><g fill="#000000" font-family="Helvetica" font-size="14px"><text x="699" y="660">Correlation</text></g><path d="M 642 665 L 642 655 L 657 655 L 657 645 L 687 660 L 657 675 L 657 665 Z" fill="#ffffff" stroke="#000000" stroke-miterlimit="10"/><rect x="552" y="647" width="100" height="30" fill="none" stroke="none"/><g fill="#000000" font-family="Helvetica" font-size="14px"><text x="554" y="662">Comparing</text><text x="554" y="679">Method</text></g><rect x="240" y="472" width="105" height="20" fill="none" stroke="none"/><g fill="#000000" font-family="Helvetica" text-decoration="underline" font-size="24px"><text x="242" y="497">Using Semantic Comparer</text></g><path d="M 458 332 L 562 332 L 562 392 L 458 392 L 458 380 L 442 380 L 442 368 L 458 368 L 458 356 L 442 356 L 442 344 L 458 344 Z" fill="#ffffff" stroke="#000000" stroke-miterlimit="10"/><path d="M 458 344 L 474 344 L 474 356 L 458 356 M 458 368 L 474 368 L 474 380 L 458 380" fill="none" stroke="#000000" stroke-miterlimit="10"/><g fill="#000000" font-family="Helvetica" font-size="12px"><text x="480" y="366">DbBuilder</text></g><path d="M 502 332 L 502 308" fill="none" stroke="#000000" stroke-miterlimit="10"/><path d="M 502 303 L 506 310 L 502 308 L 499 310 Z" fill="#000000" stroke="#000000" stroke-miterlimit="10"/><path d="M 362 249 L 460 328" fill="none" stroke="#000000" stroke-miterlimit="10"/><path d="M 464 331 L 456 330 L 460 328 L 461 324 Z" fill="#000000" stroke="#000000" stroke-miterlimit="10"/><path d="M 86 612 L 201 610" fill="none" stroke="#000000" stroke-miterlimit="10"/><path d="M 206 610 L 199 613 L 201 610 L 199 606 Z" fill="#000000" stroke="#000000" stroke-miterlimit="10"/><path d="M 540 332 L 637 255" fill="none" stroke="#000000" stroke-miterlimit="10"/><path d="M 641 252 L 638 259 L 637 255 L 633 254 Z" fill="#000000" stroke="#000000" stroke-miterlimit="10"/><path d="M 658 332 L 792 332 L 792 392 L 658 392 L 658 380 L 642 380 L 642 368 L 658 368 L 658 356 L 642 356 L 642 344 L 658 344 Z" fill="#ffffff" stroke="#000000" stroke-miterlimit="10"/><path d="M 658 344 L 674 344 L 674 356 L 658 356 M 658 368 L 674 368 L 674 380 L 658 380" fill="none" stroke="#000000" stroke-miterlimit="10"/><g fill="#000000" font-family="Helvetica" font-size="12px"><text x="680" y="366">DatabaseWrapper</text></g><path d="M 717 332 L 717 298" fill="none" stroke="#000000" stroke-miterlimit="10"/><path d="M 717 293 L 721 300 L 717 298 L 714 300 Z" fill="#000000" stroke="#000000" stroke-miterlimit="10"/><path d="M 171 332 L 317 332 L 317 392 L 171 392 L 171 380 L 155 380 L 155 368 L 171 368 L 171 356 L 155 356 L 155 344 L 171 344 Z" fill="#ffffff" stroke="#000000" stroke-miterlimit="10"/><path d="M 171 344 L 187 344 L 187 356 L 171 356 M 171 368 L 187 368 L 187 380 L 171 380" fill="none" stroke="#000000" stroke-miterlimit="10"/><g fill="#000000" font-family="Helvetica" font-size="12px"><text x="193" y="366">Parsing Tools</text></g><path d="M 121 291 L 201 329" fill="none" stroke="#000000" stroke-miterlimit="10"/><path d="M 206 332 L 198 332 L 201 329 L 201 325 Z" fill="#000000" stroke="#000000" stroke-miterlimit="10"/><path d="M 276 332 L 289 308" fill="none" stroke="#000000" stroke-miterlimit="10"/><path d="M 291 303 L 291 311 L 289 308 L 285 308 Z" fill="#000000" stroke="#000000" stroke-miterlimit="10"/><path d="M 28 332 L 132 332 L 132 392 L 28 392 L 28 380 L 12 380 L 12 368 L 28 368 L 28 356 L 12 356 L 12 344 L 28 344 Z" fill="#ffffff" stroke="#000000" stroke-miterlimit="10"/><path d="M 28 344 L 44 344 L 44 356 L 28 356 M 28 368 L 44 368 L 44 380 L 28 380" fill="none" stroke="#000000" stroke-miterlimit="10"/><g fill="#000000" font-family="Helvetica" font-size="12px"><text x="50" y="366">Web Tools</text></g><path d="M 72 332 L 72 308" fill="none" stroke="#000000" stroke-miterlimit="10"/><path d="M 72 303 L 76 310 L 72 308 L 69 310 Z" fill="#000000" stroke="#000000" stroke-miterlimit="10"/><path d="M 90 705 L 201 705" fill="none" stroke="#000000" stroke-miterlimit="10"/><path d="M 206 705 L 199 708 L 201 705 L 199 701 Z" fill="#000000" stroke="#000000" stroke-miterlimit="10"/><path d="M 332 610 L 523 613" fill="none" stroke="#000000" stroke-miterlimit="10"/><path d="M 528 613 L 521 617 L 523 613 L 521 610 Z" fill="#000000" stroke="#000000" stroke-miterlimit="10"/><path d="M 332 705 L 523 706" fill="none" stroke="#000000" stroke-miterlimit="10"/><path d="M 528 706 L 521 709 L 523 706 L 521 702 Z" fill="#000000" stroke="#000000" stroke-miterlimit="10"/></g></svg>